# xmcd
#
# Track frame offsets:
#	150
#	14898
#	32896
#	44171
#	51689
#	65497
#	85890
#	101915
#	115469
#	130549
#	156686
#	162742
#
# Disc length: 2370 seconds
# Revision: 0
# Processed by: cddbd v1.5.2PL0 Copyright (c) Steve Scherf et al.
# Submitted via: dBpowerAMP V12.0
#
DISCID=c009400c
DTITLE=Bas de Haan - Die Jongen Van De Overkant
DYEAR=2009
DGENRE=Blues
TTITLE0=Het Is Mooi Geweest
TTITLE1=Kansloos
TTITLE2=Die Jongen Van De Overkant
TTITLE3=Rustig
TTITLE4=Een Goeie Vent
TTITLE5=Dronken Op De Bank
TTITLE6=Ik Dacht Het Niet
TTITLE7=Jammer Dan
TTITLE8=Laat Het Los
TTITLE9=Helemaal Niets
TTITLE10=Vader De Haan
TTITLE11=Mijn Pa Heeft Niet Lang Meer
EXTD=
EXTT0=
EXTT1=
EXTT2=
EXTT3=
EXTT4=
EXTT5=
EXTT6=
EXTT7=
EXTT8=
EXTT9=
EXTT10=
EXTT11=
PLAYORDER=
